<?xml version="1.0" encoding="UTF-8" standalone="no"?>
<!DOCTYPE svg PUBLIC "-//W3C//DTD SVG 1.1//EN"
 "http://www.w3.org/Graphics/SVG/1.1/DTD/svg11.dtd">
<!-- Generated by graphviz version 14.1.3 (20260303.0454)
 -->
<!-- Title: WebEditorSequence Pages: 1 -->
<svg width="1202pt" height="674pt"
 viewBox="0.00 0.00 1202.00 674.00" xmlns="http://www.w3.org/2000/svg" xmlns:xlink="http://www.w3.org/1999/xlink">
<g id="graph0" class="graph" transform="scale(1 1) rotate(0) translate(4 670.03)">
<title>WebEditorSequence</title>
<polygon fill="white" stroke="none" points="-4,4 -4,-670.03 1198.12,-670.03 1198.12,4 -4,4"/>
<text xml:space="preserve" text-anchor="middle" x="597.06" y="-648.73" font-family="Helvetica,sans-Serif" font-size="14.00">WebEditor 데이터 흐름 (편집 Phase + 소비 Phase)</text>
<text xml:space="preserve" text-anchor="middle" x="597.06" y="-631.48" font-family="Helvetica,sans-Serif" font-size="14.00">spec 2026&#45;06&#45;19&#45;webeditor&#45;master&#45;data&#45;foundation&#45;design</text>
<!-- ED -->
<g id="node1" class="node">
<title>ED</title>
<polygon fill="#cfe8ff" stroke="black" points="122.5,-625.78 0,-625.78 0,-589.78 122.5,-589.78 122.5,-625.78"/>
<text xml:space="preserve" text-anchor="middle" x="61.25" y="-609.53" font-family="Helvetica,sans-Serif" font-size="10.00">Editor</text>
<text xml:space="preserve" text-anchor="middle" x="61.25" y="-598.28" font-family="Helvetica,sans-Serif" font-size="10.00">(ImGui / WASM·WGPU)</text>
</g>
<!-- ED1 -->
<g id="node7" class="node">
<title>ED1</title>
<ellipse fill="#999999" stroke="#999999" cx="61.25" cy="-543.31" rx="0.72" ry="0.72"/>
</g>
<!-- ED&#45;&gt;ED1 -->
<g id="edge1" class="edge">
<title>ED&#45;&gt;ED1</title>
<path fill="none" stroke="#999999" stroke-dasharray="5,2" d="M61.25,-589.3C61.25,-571.89 61.25,-547.34 61.25,-544.33"/>
</g>
<!-- DS -->
<g id="node2" class="node">
<title>DS</title>
<polygon fill="#cfe8ff" stroke="black" points="820.75,-625.78 741.75,-625.78 741.75,-589.78 820.75,-589.78 820.75,-625.78"/>
<text xml:space="preserve" text-anchor="middle" x="781.25" y="-610" font-family="Helvetica,sans-Serif" font-size="10.00">IDataStore</text>
<text xml:space="preserve" text-anchor="middle" x="781.25" y="-598.75" font-family="Helvetica,sans-Serif" font-size="10.00">(포트 + 어댑터)</text>
</g>
<!-- DS1 -->
<g id="node20" class="node">
<title>DS1</title>
<ellipse fill="#999999" stroke="#999999" cx="781.25" cy="-543.31" rx="0.72" ry="0.72"/>
</g>
<!-- DS&#45;&gt;DS1 -->
<g id="edge14" class="edge">
<title>DS&#45;&gt;DS1</title>
<path fill="none" stroke="#999999" stroke-dasharray="5,2" d="M781.25,-589.3C781.25,-571.89 781.25,-547.34 781.25,-544.33"/>
</g>
<!-- SV -->
<g id="node3" class="node">
<title>SV</title>
<polygon fill="#e8e8e8" stroke="black" points="971.25,-625.78 871.25,-625.78 871.25,-589.78 971.25,-589.78 971.25,-625.78"/>
<text xml:space="preserve" text-anchor="middle" x="921.25" y="-609.91" font-family="Helvetica,sans-Serif" font-size="10.00">DevServer</text>
<text xml:space="preserve" text-anchor="middle" x="921.25" y="-598.66" font-family="Helvetica,sans-Serif" font-size="10.00">(Python 정적+PUT)</text>
</g>
<!-- SV1 -->
<g id="node33" class="node">
<title>SV1</title>
<ellipse fill="#999999" stroke="#999999" cx="921.25" cy="-543.31" rx="0.72" ry="0.72"/>
</g>
<!-- SV&#45;&gt;SV1 -->
<g id="edge27" class="edge">
<title>SV&#45;&gt;SV1</title>
<path fill="none" stroke="#999999" stroke-dasharray="5,2" d="M921.25,-589.3C921.25,-571.89 921.25,-547.34 921.25,-544.33"/>
</g>
<!-- JF -->
<g id="node4" class="node">
<title>JF</title>
<polygon fill="#fff2cc" stroke="black" points="672.88,-625.78 585.62,-625.78 585.62,-589.78 672.88,-589.78 672.88,-625.78"/>
<text xml:space="preserve" text-anchor="middle" x="629.25" y="-609.53" font-family="Helvetica,sans-Serif" font-size="10.00">resources/data/</text>
<text xml:space="preserve" text-anchor="middle" x="629.25" y="-598.28" font-family="Helvetica,sans-Serif" font-size="10.00">*.json + schema</text>
</g>
<!-- JF1 -->
<g id="node46" class="node">
<title>JF1</title>
<ellipse fill="#999999" stroke="#999999" cx="629.25" cy="-543.31" rx="0.72" ry="0.72"/>
</g>
<!-- JF&#45;&gt;JF1 -->
<g id="edge40" class="edge">
<title>JF&#45;&gt;JF1</title>
<path fill="none" stroke="#999999" stroke-dasharray="5,2" d="M629.25,-589.3C629.25,-571.89 629.25,-547.34 629.25,-544.33"/>
</g>
<!-- GM -->
<g id="node5" class="node">
<title>GM</title>
<polygon fill="#d9ead3" stroke="black" points="510.25,-625.78 356.25,-625.78 356.25,-589.78 510.25,-589.78 510.25,-625.78"/>
<text xml:space="preserve" text-anchor="middle" x="433.25" y="-609.53" font-family="Helvetica,sans-Serif" font-size="10.00">Game boot</text>
<text xml:space="preserve" text-anchor="middle" x="433.25" y="-598.28" font-family="Helvetica,sans-Serif" font-size="10.00">DataTable &#45;&gt; ResourceRegistry</text>
</g>
<!-- GM1 -->
<g id="node59" class="node">
<title>GM1</title>
<ellipse fill="#999999" stroke="#999999" cx="433.25" cy="-543.31" rx="0.72" ry="0.72"/>
</g>
<!-- GM&#45;&gt;GM1 -->
<g id="edge53" class="edge">
<title>GM&#45;&gt;GM1</title>
<path fill="none" stroke="#999999" stroke-dasharray="5,2" d="M433.25,-589.3C433.25,-571.89 433.25,-547.34 433.25,-544.33"/>
</g>
<!-- SC -->
<g id="node6" class="node">
<title>SC</title>
<polygon fill="#d9ead3" stroke="black" points="286.12,-625.78 140.38,-625.78 140.38,-589.78 286.12,-589.78 286.12,-625.78"/>
<text xml:space="preserve" text-anchor="middle" x="213.25" y="-609.91" font-family="Helvetica,sans-Serif" font-size="10.00">Stage 소비처</text>
<text xml:space="preserve" text-anchor="middle" x="213.25" y="-597.91" font-family="Helvetica,sans-Serif" font-size="10.00">WaveController / StageConfig</text>
</g>
<!-- SC1 -->
<g id="node72" class="node">
<title>SC1</title>
<ellipse fill="#999999" stroke="#999999" cx="213.25" cy="-543.31" rx="0.72" ry="0.72"/>
</g>
<!-- SC&#45;&gt;SC1 -->
<g id="edge66" class="edge">
<title>SC&#45;&gt;SC1</title>
<path fill="none" stroke="#999999" stroke-dasharray="5,2" d="M213.25,-589.3C213.25,-571.89 213.25,-547.34 213.25,-544.33"/>
</g>
<!-- ED2 -->
<g id="node8" class="node">
<title>ED2</title>
<ellipse fill="#999999" stroke="#999999" cx="61.25" cy="-504.87" rx="0.72" ry="0.72"/>
</g>
<!-- ED1&#45;&gt;ED2 -->
<g id="edge2" class="edge">
<title>ED1&#45;&gt;ED2</title>
<path fill="none" stroke="#999999" stroke-dasharray="5,2" d="M61.25,-542.17C61.25,-538.36 61.25,-509.54 61.25,-505.96"/>
</g>
<!-- ED1&#45;&gt;DS1 -->
<g id="edge79" class="edge">
<title>ED1&#45;&gt;DS1</title>
<path fill="none" stroke="#1f4e79" d="M62.03,-543.43C72.5,-544.99 186.36,-561.8 279,-566.78 474.54,-577.29 713.04,-551.36 769.07,-544.78"/>
<polygon fill="#1f4e79" stroke="#1f4e79" points="769.22,-548.29 778.73,-543.62 768.38,-541.34 769.22,-548.29"/>
<text xml:space="preserve" text-anchor="middle" x="323.25" y="-563.23" font-family="Helvetica,sans-Serif" font-size="9.00">1: load(schema, data)</text>
</g>
<!-- ED3 -->
<g id="node9" class="node">
<title>ED3</title>
<ellipse fill="#999999" stroke="#999999" cx="61.25" cy="-457.68" rx="0.72" ry="0.72"/>
</g>
<!-- ED2&#45;&gt;ED3 -->
<g id="edge3" class="edge">
<title>ED2&#45;&gt;ED3</title>
<path fill="none" stroke="#999999" stroke-dasharray="5,2" d="M61.25,-504.02C61.25,-501.5 61.25,-463.61 61.25,-458.88"/>
</g>
<!-- ED4 -->
<g id="node10" class="node">
<title>ED4</title>
<ellipse fill="#999999" stroke="#999999" cx="61.25" cy="-410.49" rx="0.72" ry="0.72"/>
</g>
<!-- ED3&#45;&gt;ED4 -->
<g id="edge4" class="edge">
<title>ED3&#45;&gt;ED4</title>
<path fill="none" stroke="#999999" stroke-dasharray="5,2" d="M61.25,-456.83C61.25,-454.31 61.25,-416.42 61.25,-411.69"/>
</g>
<!-- ED5 -->
<g id="node11" class="node">
<title>ED5</title>
<ellipse fill="#999999" stroke="#999999" cx="61.25" cy="-372.05" rx="0.72" ry="0.72"/>
</g>
<!-- ED4&#45;&gt;ED5 -->
<g id="edge5" class="edge">
<title>ED4&#45;&gt;ED5</title>
<path fill="none" stroke="#999999" stroke-dasharray="5,2" d="M61.25,-409.35C61.25,-405.54 61.25,-376.72 61.25,-373.14"/>
</g>
<!-- ED6 -->
<g id="node12" class="node">
<title>ED6</title>
<ellipse fill="#999999" stroke="#999999" cx="61.25" cy="-323.36" rx="0.72" ry="0.72"/>
</g>
<!-- ED5&#45;&gt;ED6 -->
<g id="edge6" class="edge">
<title>ED5&#45;&gt;ED6</title>
<path fill="none" stroke="#999999" stroke-dasharray="5,2" d="M61.25,-371.19C61.25,-368.6 61.25,-329.46 61.25,-324.58"/>
</g>
<!-- ED7 -->
<g id="node13" class="node">
<title>ED7</title>
<ellipse fill="#999999" stroke="#999999" cx="61.25" cy="-276.17" rx="0.72" ry="0.72"/>
</g>
<!-- ED6&#45;&gt;ED7 -->
<g id="edge7" class="edge">
<title>ED6&#45;&gt;ED7</title>
<path fill="none" stroke="#999999" stroke-dasharray="5,2" d="M61.25,-322.51C61.25,-319.99 61.25,-282.1 61.25,-277.37"/>
</g>
<!-- ED8 -->
<g id="node14" class="node">
<title>ED8</title>
<ellipse fill="#999999" stroke="#999999" cx="61.25" cy="-237.73" rx="0.72" ry="0.72"/>
</g>
<!-- ED7&#45;&gt;ED8 -->
<g id="edge8" class="edge">
<title>ED7&#45;&gt;ED8</title>
<path fill="none" stroke="#999999" stroke-dasharray="5,2" d="M61.25,-275.03C61.25,-271.22 61.25,-242.4 61.25,-238.82"/>
</g>
<!-- DS7 -->
<g id="node26" class="node">
<title>DS7</title>
<ellipse fill="#999999" stroke="#999999" cx="781.25" cy="-276.17" rx="0.72" ry="0.72"/>
</g>
<!-- ED7&#45;&gt;DS7 -->
<g id="edge85" class="edge">
<title>ED7&#45;&gt;DS7</title>
<path fill="none" stroke="#1f4e79" d="M62.05,-276.29C72.79,-277.85 189.61,-294.66 284.62,-299.64 477.57,-309.75 712.8,-284.24 768.84,-277.67"/>
<polygon fill="#1f4e79" stroke="#1f4e79" points="769.23,-281.15 778.74,-276.48 768.39,-274.2 769.23,-281.15"/>
<text xml:space="preserve" text-anchor="middle" x="323.25" y="-296.09" font-family="Helvetica,sans-Serif" font-size="9.00">7: save(stage.json)</text>
</g>
<!-- ED9 -->
<g id="node15" class="node">
<title>ED9</title>
<ellipse fill="#999999" stroke="#999999" cx="61.25" cy="-171.76" rx="0.72" ry="0.72"/>
</g>
<!-- ED8&#45;&gt;ED9 -->
<g id="edge9" class="edge">
<title>ED8&#45;&gt;ED9</title>
<path fill="none" stroke="#999999" stroke-dasharray="5,2" d="M61.25,-236.6C61.25,-231.3 61.25,-176.36 61.25,-172.93"/>
</g>
<!-- ED10 -->
<g id="node16" class="node">
<title>ED10</title>
<ellipse fill="#999999" stroke="#999999" cx="61.25" cy="-116.04" rx="0.72" ry="0.72"/>
</g>
<!-- ED9&#45;&gt;ED10 -->
<g id="edge10" class="edge">
<title>ED9&#45;&gt;ED10</title>
<path fill="none" stroke="#999999" stroke-dasharray="5,2" d="M61.25,-170.61C61.25,-167.54 61.25,-119.88 61.25,-116.91"/>
</g>
<!-- ED11 -->
<g id="node17" class="node">
<title>ED11</title>
<ellipse fill="#999999" stroke="#999999" cx="61.25" cy="-77.6" rx="0.72" ry="0.72"/>
</g>
<!-- ED10&#45;&gt;ED11 -->
<g id="edge11" class="edge">
<title>ED10&#45;&gt;ED11</title>
<path fill="none" stroke="#999999" stroke-dasharray="5,2" d="M61.25,-114.9C61.25,-111.09 61.25,-82.27 61.25,-78.69"/>
</g>
<!-- ED12 -->
<g id="node18" class="node">
<title>ED12</title>
<ellipse fill="#999999" stroke="#999999" cx="61.25" cy="-39.16" rx="0.72" ry="0.72"/>
</g>
<!-- ED11&#45;&gt;ED12 -->
<g id="edge12" class="edge">
<title>ED11&#45;&gt;ED12</title>
<path fill="none" stroke="#999999" stroke-dasharray="5,2" d="M61.25,-76.46C61.25,-72.65 61.25,-43.83 61.25,-40.25"/>
</g>
<!-- ED13 -->
<g id="node19" class="node">
<title>ED13</title>
<ellipse fill="#999999" stroke="#999999" cx="61.25" cy="-0.72" rx="0.72" ry="0.72"/>
</g>
<!-- ED12&#45;&gt;ED13 -->
<g id="edge13" class="edge">
<title>ED12&#45;&gt;ED13</title>
<path fill="none" stroke="#999999" stroke-dasharray="5,2" d="M61.25,-38.02C61.25,-34.21 61.25,-5.39 61.25,-1.81"/>
</g>
<!-- DS2 -->
<g id="node21" class="node">
<title>DS2</title>
<ellipse fill="#999999" stroke="#999999" cx="781.25" cy="-504.87" rx="0.72" ry="0.72"/>
</g>
<!-- DS1&#45;&gt;DS2 -->
<g id="edge15" class="edge">
<title>DS1&#45;&gt;DS2</title>
<path fill="none" stroke="#999999" stroke-dasharray="5,2" d="M781.25,-542.17C781.25,-538.36 781.25,-509.54 781.25,-505.96"/>
</g>
<!-- DS3 -->
<g id="node22" class="node">
<title>DS3</title>
<ellipse fill="#999999" stroke="#999999" cx="781.25" cy="-457.68" rx="0.72" ry="0.72"/>
</g>
<!-- DS2&#45;&gt;DS3 -->
<g id="edge16" class="edge">
<title>DS2&#45;&gt;DS3</title>
<path fill="none" stroke="#999999" stroke-dasharray="5,2" d="M781.25,-504.02C781.25,-501.5 781.25,-463.61 781.25,-458.88"/>
</g>
<!-- SV2 -->
<g id="node34" class="node">
<title>SV2</title>
<ellipse fill="#999999" stroke="#999999" cx="921.25" cy="-504.87" rx="0.72" ry="0.72"/>
</g>
<!-- DS2&#45;&gt;SV2 -->
<g id="edge80" class="edge">
<title>DS2&#45;&gt;SV2</title>
<path fill="none" stroke="#1f4e79" d="M782.14,-504.87C791.82,-504.87 877.43,-504.87 909.33,-504.87"/>
<polygon fill="#1f4e79" stroke="#1f4e79" points="908.92,-508.37 918.92,-504.87 908.92,-501.37 908.92,-508.37"/>
<text xml:space="preserve" text-anchor="middle" x="851.25" y="-509.07" font-family="Helvetica,sans-Serif" font-size="9.00">2: GET schema/*.json + *.json</text>
</g>
<!-- DS4 -->
<g id="node23" class="node">
<title>DS4</title>
<ellipse fill="#999999" stroke="#999999" cx="781.25" cy="-410.49" rx="0.72" ry="0.72"/>
</g>
<!-- DS3&#45;&gt;DS4 -->
<g id="edge17" class="edge">
<title>DS3&#45;&gt;DS4</title>
<path fill="none" stroke="#999999" stroke-dasharray="5,2" d="M781.25,-456.83C781.25,-454.31 781.25,-416.42 781.25,-411.69"/>
</g>
<!-- DS5 -->
<g id="node24" class="node">
<title>DS5</title>
<ellipse fill="#999999" stroke="#999999" cx="781.25" cy="-372.05" rx="0.72" ry="0.72"/>
</g>
<!-- DS4&#45;&gt;DS5 -->
<g id="edge18" class="edge">
<title>DS4&#45;&gt;DS5</title>
<path fill="none" stroke="#999999" stroke-dasharray="5,2" d="M781.25,-409.35C781.25,-405.54 781.25,-376.72 781.25,-373.14"/>
</g>
<!-- DS6 -->
<g id="node25" class="node">
<title>DS6</title>
<ellipse fill="#999999" stroke="#999999" cx="781.25" cy="-323.36" rx="0.72" ry="0.72"/>
</g>
<!-- DS5&#45;&gt;DS6 -->
<g id="edge19" class="edge">
<title>DS5&#45;&gt;DS6</title>
<path fill="none" stroke="#999999" stroke-dasharray="5,2" d="M781.25,-371.19C781.25,-368.6 781.25,-329.46 781.25,-324.58"/>
</g>
<!-- DS6&#45;&gt;ED6 -->
<g id="edge84" class="edge">
<title>DS6&#45;&gt;ED6</title>
<path fill="none" stroke="#7f7f7f" stroke-dasharray="5,2" d="M780.13,-323.52C759.72,-326.32 465.27,-365.86 228.75,-348.33 169.93,-343.97 100.43,-331.11 73.11,-325.75"/>
<polygon fill="#7f7f7f" stroke="#7f7f7f" points="63.5,-323.82 74.19,-321.37 67.21,-324.56 73.31,-325.79 73.31,-325.79 73.31,-325.79 67.21,-324.56 72.42,-330.2 63.5,-323.82"/>
<text xml:space="preserve" text-anchor="middle" x="323.25" y="-344.78" font-family="Helvetica,sans-Serif" font-size="9.00">6: schema+data &#45;&gt; 폼 렌더 (IndexedDB 드래프트)</text>
</g>
<!-- DS6&#45;&gt;DS7 -->
<g id="edge20" class="edge">
<title>DS6&#45;&gt;DS7</title>
<path fill="none" stroke="#999999" stroke-dasharray="5,2" d="M781.25,-322.51C781.25,-319.99 781.25,-282.1 781.25,-277.37"/>
</g>
<!-- DS8 -->
<g id="node27" class="node">
<title>DS8</title>
<ellipse fill="#999999" stroke="#999999" cx="781.25" cy="-237.73" rx="0.72" ry="0.72"/>
</g>
<!-- DS7&#45;&gt;DS8 -->
<g id="edge21" class="edge">
<title>DS7&#45;&gt;DS8</title>
<path fill="none" stroke="#999999" stroke-dasharray="5,2" d="M781.25,-275.03C781.25,-271.22 781.25,-242.4 781.25,-238.82"/>
</g>
<!-- DS9 -->
<g id="node28" class="node">
<title>DS9</title>
<ellipse fill="#999999" stroke="#999999" cx="781.25" cy="-171.76" rx="0.72" ry="0.72"/>
</g>
<!-- DS8&#45;&gt;DS9 -->
<g id="edge22" class="edge">
<title>DS8&#45;&gt;DS9</title>
<path fill="none" stroke="#999999" stroke-dasharray="5,2" d="M781.25,-236.6C781.25,-231.3 781.25,-176.36 781.25,-172.93"/>
</g>
<!-- SV8 -->
<g id="node40" class="node">
<title>SV8</title>
<ellipse fill="#999999" stroke="#999999" cx="921.25" cy="-237.73" rx="0.72" ry="0.72"/>
</g>
<!-- DS8&#45;&gt;SV8 -->
<g id="edge86" class="edge">
<title>DS8&#45;&gt;SV8</title>
<path fill="none" stroke="#1f4e79" d="M782.14,-237.73C791.82,-237.73 877.43,-237.73 909.33,-237.73"/>
<polygon fill="#1f4e79" stroke="#1f4e79" points="908.92,-241.23 918.92,-237.73 908.92,-234.23 908.92,-241.23"/>
<text xml:space="preserve" text-anchor="middle" x="851.25" y="-241.93" font-family="Helvetica,sans-Serif" font-size="9.00">8: PUT stage.json</text>
</g>
<!-- DS10 -->
<g id="node29" class="node">
<title>DS10</title>
<ellipse fill="#999999" stroke="#999999" cx="781.25" cy="-116.04" rx="0.72" ry="0.72"/>
</g>
<!-- DS9&#45;&gt;DS10 -->
<g id="edge23" class="edge">
<title>DS9&#45;&gt;DS10</title>
<path fill="none" stroke="#999999" stroke-dasharray="5,2" d="M781.25,-170.61C781.25,-167.54 781.25,-119.88 781.25,-116.91"/>
</g>
<!-- DS11 -->
<g id="node30" class="node">
<title>DS11</title>
<ellipse fill="#999999" stroke="#999999" cx="781.25" cy="-77.6" rx="0.72" ry="0.72"/>
</g>
<!-- DS10&#45;&gt;DS11 -->
<g id="edge24" class="edge">
<title>DS10&#45;&gt;DS11</title>
<path fill="none" stroke="#999999" stroke-dasharray="5,2" d="M781.25,-114.9C781.25,-111.09 781.25,-82.27 781.25,-78.69"/>
</g>
<!-- DS12 -->
<g id="node31" class="node">
<title>DS12</title>
<ellipse fill="#999999" stroke="#999999" cx="781.25" cy="-39.16" rx="0.72" ry="0.72"/>
</g>
<!-- DS11&#45;&gt;DS12 -->
<g id="edge25" class="edge">
<title>DS11&#45;&gt;DS12</title>
<path fill="none" stroke="#999999" stroke-dasharray="5,2" d="M781.25,-76.46C781.25,-72.65 781.25,-43.83 781.25,-40.25"/>
</g>
<!-- DS13 -->
<g id="node32" class="node">
<title>DS13</title>
<ellipse fill="#999999" stroke="#999999" cx="781.25" cy="-0.72" rx="0.72" ry="0.72"/>
</g>
<!-- DS12&#45;&gt;DS13 -->
<g id="edge26" class="edge">
<title>DS12&#45;&gt;DS13</title>
<path fill="none" stroke="#999999" stroke-dasharray="5,2" d="M781.25,-38.02C781.25,-34.21 781.25,-5.39 781.25,-1.81"/>
</g>
<!-- SV1&#45;&gt;SV2 -->
<g id="edge28" class="edge">
<title>SV1&#45;&gt;SV2</title>
<path fill="none" stroke="#999999" stroke-dasharray="5,2" d="M921.25,-542.17C921.25,-538.36 921.25,-509.54 921.25,-505.96"/>
</g>
<!-- SV3 -->
<g id="node35" class="node">
<title>SV3</title>
<ellipse fill="#999999" stroke="#999999" cx="921.25" cy="-457.68" rx="0.72" ry="0.72"/>
</g>
<!-- SV2&#45;&gt;SV3 -->
<g id="edge29" class="edge">
<title>SV2&#45;&gt;SV3</title>
<path fill="none" stroke="#999999" stroke-dasharray="5,2" d="M921.25,-504.02C921.25,-501.5 921.25,-463.61 921.25,-458.88"/>
</g>
<!-- SV4 -->
<g id="node36" class="node">
<title>SV4</title>
<ellipse fill="#999999" stroke="#999999" cx="921.25" cy="-410.49" rx="0.72" ry="0.72"/>
</g>
<!-- SV3&#45;&gt;SV4 -->
<g id="edge30" class="edge">
<title>SV3&#45;&gt;SV4</title>
<path fill="none" stroke="#999999" stroke-dasharray="5,2" d="M921.25,-456.83C921.25,-454.31 921.25,-416.42 921.25,-411.69"/>
</g>
<!-- JF3 -->
<g id="node48" class="node">
<title>JF3</title>
<ellipse fill="#999999" stroke="#999999" cx="629.25" cy="-457.68" rx="0.72" ry="0.72"/>
</g>
<!-- SV3&#45;&gt;JF3 -->
<g id="edge81" class="edge">
<title>SV3&#45;&gt;JF3</title>
<path fill="none" stroke="#1f4e79" d="M920.42,-457.94C909.32,-461.43 788.69,-498.21 693,-481.15 673.85,-477.74 652.91,-468.98 640.44,-463.18"/>
<polygon fill="#1f4e79" stroke="#1f4e79" points="642,-460.05 631.48,-458.8 638.92,-466.33 642,-460.05"/>
<text xml:space="preserve" text-anchor="middle" x="707.25" y="-477.6" font-family="Helvetica,sans-Serif" font-size="9.00">3: read</text>
</g>
<!-- SV5 -->
<g id="node37" class="node">
<title>SV5</title>
<ellipse fill="#999999" stroke="#999999" cx="921.25" cy="-372.05" rx="0.72" ry="0.72"/>
</g>
<!-- SV4&#45;&gt;SV5 -->
<g id="edge31" class="edge">
<title>SV4&#45;&gt;SV5</title>
<path fill="none" stroke="#999999" stroke-dasharray="5,2" d="M921.25,-409.35C921.25,-405.54 921.25,-376.72 921.25,-373.14"/>
</g>
<!-- SV5&#45;&gt;DS5 -->
<g id="edge83" class="edge">
<title>SV5&#45;&gt;DS5</title>
<path fill="none" stroke="#7f7f7f" stroke-dasharray="5,2" d="M920.44,-372.05C911.15,-372.05 824.86,-372.05 793,-372.05"/>
<polygon fill="#7f7f7f" stroke="#7f7f7f" points="783.36,-372.05 793.36,-367.55 787.14,-372.05 793.36,-372.05 793.36,-372.05 793.36,-372.05 787.14,-372.05 793.36,-376.55 783.36,-372.05"/>
<text xml:space="preserve" text-anchor="middle" x="851.25" y="-376.25" font-family="Helvetica,sans-Serif" font-size="9.00">5: json</text>
</g>
<!-- SV6 -->
<g id="node38" class="node">
<title>SV6</title>
<ellipse fill="#999999" stroke="#999999" cx="921.25" cy="-323.36" rx="0.72" ry="0.72"/>
</g>
<!-- SV5&#45;&gt;SV6 -->
<g id="edge32" class="edge">
<title>SV5&#45;&gt;SV6</title>
<path fill="none" stroke="#999999" stroke-dasharray="5,2" d="M921.25,-371.19C921.25,-368.6 921.25,-329.46 921.25,-324.58"/>
</g>
<!-- SV7 -->
<g id="node39" class="node">
<title>SV7</title>
<ellipse fill="#999999" stroke="#999999" cx="921.25" cy="-276.17" rx="0.72" ry="0.72"/>
</g>
<!-- SV6&#45;&gt;SV7 -->
<g id="edge33" class="edge">
<title>SV6&#45;&gt;SV7</title>
<path fill="none" stroke="#999999" stroke-dasharray="5,2" d="M921.25,-322.51C921.25,-319.99 921.25,-282.1 921.25,-277.37"/>
</g>
<!-- SV7&#45;&gt;SV8 -->
<g id="edge34" class="edge">
<title>SV7&#45;&gt;SV8</title>
<path fill="none" stroke="#999999" stroke-dasharray="5,2" d="M921.25,-275.03C921.25,-271.22 921.25,-242.4 921.25,-238.82"/>
</g>
<!-- SV9 -->
<g id="node41" class="node">
<title>SV9</title>
<ellipse fill="#999999" stroke="#999999" cx="921.25" cy="-171.76" rx="0.72" ry="0.72"/>
</g>
<!-- SV8&#45;&gt;SV9 -->
<g id="edge35" class="edge">
<title>SV8&#45;&gt;SV9</title>
<path fill="none" stroke="#999999" stroke-dasharray="5,2" d="M921.25,-236.6C921.25,-231.3 921.25,-176.36 921.25,-172.93"/>
</g>
<!-- SV10 -->
<g id="node42" class="node">
<title>SV10</title>
<ellipse fill="#999999" stroke="#999999" cx="921.25" cy="-116.04" rx="0.72" ry="0.72"/>
</g>
<!-- SV9&#45;&gt;SV10 -->
<g id="edge36" class="edge">
<title>SV9&#45;&gt;SV10</title>
<path fill="none" stroke="#999999" stroke-dasharray="5,2" d="M921.25,-170.61C921.25,-167.54 921.25,-119.88 921.25,-116.91"/>
</g>
<!-- JF9 -->
<g id="node54" class="node">
<title>JF9</title>
<ellipse fill="#999999" stroke="#999999" cx="629.25" cy="-171.76" rx="0.72" ry="0.72"/>
</g>
<!-- SV9&#45;&gt;JF9 -->
<g id="edge87" class="edge">
<title>SV9&#45;&gt;JF9</title>
<path fill="none" stroke="#1f4e79" d="M920.28,-172.11C910.75,-175.58 832.37,-203.61 766.12,-212.07 753.15,-213.73 659.43,-219.07 648.38,-212.07 638.53,-205.84 633.65,-193.01 631.3,-183.49"/>
<polygon fill="#1f4e79" stroke="#1f4e79" points="634.81,-183.21 629.59,-173.99 627.92,-184.45 634.81,-183.21"/>
<text xml:space="preserve" text-anchor="middle" x="707.25" y="-210.46" font-family="Helvetica,sans-Serif" font-size="9.00">9: write (resources/data/ 갱신)</text>
</g>
<!-- SV11 -->
<g id="node43" class="node">
<title>SV11</title>
<ellipse fill="#999999" stroke="#999999" cx="921.25" cy="-77.6" rx="0.72" ry="0.72"/>
</g>
<!-- SV10&#45;&gt;SV11 -->
<g id="edge37" class="edge">
<title>SV10&#45;&gt;SV11</title>
<path fill="none" stroke="#999999" stroke-dasharray="5,2" d="M921.25,-114.9C921.25,-111.09 921.25,-82.27 921.25,-78.69"/>
</g>
<!-- SV12 -->
<g id="node44" class="node">
<title>SV12</title>
<ellipse fill="#999999" stroke="#999999" cx="921.25" cy="-39.16" rx="0.72" ry="0.72"/>
</g>
<!-- SV11&#45;&gt;SV12 -->
<g id="edge38" class="edge">
<title>SV11&#45;&gt;SV12</title>
<path fill="none" stroke="#999999" stroke-dasharray="5,2" d="M921.25,-76.46C921.25,-72.65 921.25,-43.83 921.25,-40.25"/>
</g>
<!-- SV13 -->
<g id="node45" class="node">
<title>SV13</title>
<ellipse fill="#999999" stroke="#999999" cx="921.25" cy="-0.72" rx="0.72" ry="0.72"/>
</g>
<!-- SV12&#45;&gt;SV13 -->
<g id="edge39" class="edge">
<title>SV12&#45;&gt;SV13</title>
<path fill="none" stroke="#999999" stroke-dasharray="5,2" d="M921.25,-38.02C921.25,-34.21 921.25,-5.39 921.25,-1.81"/>
</g>
<!-- JF2 -->
<g id="node47" class="node">
<title>JF2</title>
<ellipse fill="#999999" stroke="#999999" cx="629.25" cy="-504.87" rx="0.72" ry="0.72"/>
</g>
<!-- JF1&#45;&gt;JF2 -->
<g id="edge41" class="edge">
<title>JF1&#45;&gt;JF2</title>
<path fill="none" stroke="#999999" stroke-dasharray="5,2" d="M629.25,-542.17C629.25,-538.36 629.25,-509.54 629.25,-505.96"/>
</g>
<!-- JF2&#45;&gt;JF3 -->
<g id="edge42" class="edge">
<title>JF2&#45;&gt;JF3</title>
<path fill="none" stroke="#999999" stroke-dasharray="5,2" d="M629.25,-504.02C629.25,-501.5 629.25,-463.61 629.25,-458.88"/>
</g>
<!-- JF4 -->
<g id="node49" class="node">
<title>JF4</title>
<ellipse fill="#999999" stroke="#999999" cx="629.25" cy="-410.49" rx="0.72" ry="0.72"/>
</g>
<!-- JF3&#45;&gt;JF4 -->
<g id="edge43" class="edge">
<title>JF3&#45;&gt;JF4</title>
<path fill="none" stroke="#999999" stroke-dasharray="5,2" d="M629.25,-456.83C629.25,-454.31 629.25,-416.42 629.25,-411.69"/>
</g>
<!-- JF4&#45;&gt;SV4 -->
<g id="edge82" class="edge">
<title>JF4&#45;&gt;SV4</title>
<path fill="none" stroke="#7f7f7f" stroke-dasharray="5,2" d="M630.08,-410.94C635.33,-413.78 664.52,-429.15 690.5,-433.96 773.9,-449.39 876.28,-423.54 909.94,-413.89"/>
<polygon fill="#7f7f7f" stroke="#7f7f7f" points="919.25,-411.11 910.96,-418.29 915.62,-412.19 909.67,-413.97 909.67,-413.97 909.67,-413.97 915.62,-412.19 908.38,-409.66 919.25,-411.11"/>
<text xml:space="preserve" text-anchor="middle" x="706.25" y="-430.41" font-family="Helvetica,sans-Serif" font-size="9.00">4: bytes</text>
</g>
<!-- JF5 -->
<g id="node50" class="node">
<title>JF5</title>
<ellipse fill="#999999" stroke="#999999" cx="629.25" cy="-372.05" rx="0.72" ry="0.72"/>
</g>
<!-- JF4&#45;&gt;JF5 -->
<g id="edge44" class="edge">
<title>JF4&#45;&gt;JF5</title>
<path fill="none" stroke="#999999" stroke-dasharray="5,2" d="M629.25,-409.35C629.25,-405.54 629.25,-376.72 629.25,-373.14"/>
</g>
<!-- JF6 -->
<g id="node51" class="node">
<title>JF6</title>
<ellipse fill="#999999" stroke="#999999" cx="629.25" cy="-323.36" rx="0.72" ry="0.72"/>
</g>
<!-- JF5&#45;&gt;JF6 -->
<g id="edge45" class="edge">
<title>JF5&#45;&gt;JF6</title>
<path fill="none" stroke="#999999" stroke-dasharray="5,2" d="M629.25,-371.19C629.25,-368.6 629.25,-329.46 629.25,-324.58"/>
</g>
<!-- JF7 -->
<g id="node52" class="node">
<title>JF7</title>
<ellipse fill="#999999" stroke="#999999" cx="629.25" cy="-276.17" rx="0.72" ry="0.72"/>
</g>
<!-- JF6&#45;&gt;JF7 -->
<g id="edge46" class="edge">
<title>JF6&#45;&gt;JF7</title>
<path fill="none" stroke="#999999" stroke-dasharray="5,2" d="M629.25,-322.51C629.25,-319.99 629.25,-282.1 629.25,-277.37"/>
</g>
<!-- JF8 -->
<g id="node53" class="node">
<title>JF8</title>
<ellipse fill="#999999" stroke="#999999" cx="629.25" cy="-237.73" rx="0.72" ry="0.72"/>
</g>
<!-- JF7&#45;&gt;JF8 -->
<g id="edge47" class="edge">
<title>JF7&#45;&gt;JF8</title>
<path fill="none" stroke="#999999" stroke-dasharray="5,2" d="M629.25,-275.03C629.25,-271.22 629.25,-242.4 629.25,-238.82"/>
</g>
<!-- JF8&#45;&gt;JF9 -->
<g id="edge48" class="edge">
<title>JF8&#45;&gt;JF9</title>
<path fill="none" stroke="#999999" stroke-dasharray="5,2" d="M629.25,-236.6C629.25,-231.3 629.25,-176.36 629.25,-172.93"/>
</g>
<!-- JF10 -->
<g id="node55" class="node">
<title>JF10</title>
<ellipse fill="#999999" stroke="#999999" cx="629.25" cy="-116.04" rx="0.72" ry="0.72"/>
</g>
<!-- JF9&#45;&gt;JF10 -->
<g id="edge49" class="edge">
<title>JF9&#45;&gt;JF10</title>
<path fill="none" stroke="#999999" stroke-dasharray="5,2" d="M629.25,-170.61C629.25,-167.54 629.25,-119.88 629.25,-116.91"/>
</g>
<!-- PH -->
<g id="node85" class="node">
<title>PH</title>
<polygon fill="#fde9d9" stroke="#c55a11" points="1188.12,-189.76 940.38,-189.76 940.38,-153.76 1194.12,-153.76 1194.12,-183.76 1188.12,-189.76"/>
<polyline fill="none" stroke="#c55a11" points="1188.12,-189.76 1188.12,-183.76"/>
<polyline fill="none" stroke="#c55a11" points="1194.12,-183.76 1188.12,-183.76"/>
<text xml:space="preserve" text-anchor="middle" x="1067.25" y="-168.36" font-family="Helvetica,sans-Serif" font-size="10.00">── 이후 (별도 시점): 게임 재실행 — 재컴파일 없음 ──</text>
</g>
<!-- JF9&#45;&gt;PH -->
<!-- JF11 -->
<g id="node56" class="node">
<title>JF11</title>
<ellipse fill="#999999" stroke="#999999" cx="629.25" cy="-77.6" rx="0.72" ry="0.72"/>
</g>
<!-- JF10&#45;&gt;JF11 -->
<g id="edge50" class="edge">
<title>JF10&#45;&gt;JF11</title>
<path fill="none" stroke="#999999" stroke-dasharray="5,2" d="M629.25,-114.9C629.25,-111.09 629.25,-82.27 629.25,-78.69"/>
</g>
<!-- JF12 -->
<g id="node57" class="node">
<title>JF12</title>
<ellipse fill="#999999" stroke="#999999" cx="629.25" cy="-39.16" rx="0.72" ry="0.72"/>
</g>
<!-- JF11&#45;&gt;JF12 -->
<g id="edge51" class="edge">
<title>JF11&#45;&gt;JF12</title>
<path fill="none" stroke="#999999" stroke-dasharray="5,2" d="M629.25,-76.46C629.25,-72.65 629.25,-43.83 629.25,-40.25"/>
</g>
<!-- GM11 -->
<g id="node69" class="node">
<title>GM11</title>
<ellipse fill="#999999" stroke="#999999" cx="433.25" cy="-77.6" rx="0.72" ry="0.72"/>
</g>
<!-- JF11&#45;&gt;GM11 -->
<g id="edge90" class="edge">
<title>JF11&#45;&gt;GM11</title>
<path fill="none" stroke="#7f7f7f" stroke-dasharray="5,2" d="M628.09,-77.6C614.52,-77.6 485.38,-77.6 445.15,-77.6"/>
<polygon fill="#7f7f7f" stroke="#7f7f7f" points="435.34,-77.6 445.34,-73.1 439.12,-77.6 445.34,-77.6 445.34,-77.6 445.34,-77.6 439.12,-77.6 445.34,-82.1 435.34,-77.6"/>
<text xml:space="preserve" text-anchor="middle" x="531.25" y="-83.3" font-family="Helvetica,sans-Serif" font-size="9.00">11: StageData (Registry 적재)</text>
</g>
<!-- JF13 -->
<g id="node58" class="node">
<title>JF13</title>
<ellipse fill="#999999" stroke="#999999" cx="629.25" cy="-0.72" rx="0.72" ry="0.72"/>
</g>
<!-- JF12&#45;&gt;JF13 -->
<g id="edge52" class="edge">
<title>JF12&#45;&gt;JF13</title>
<path fill="none" stroke="#999999" stroke-dasharray="5,2" d="M629.25,-38.02C629.25,-34.21 629.25,-5.39 629.25,-1.81"/>
</g>
<!-- GM2 -->
<g id="node60" class="node">
<title>GM2</title>
<ellipse fill="#999999" stroke="#999999" cx="433.25" cy="-504.87" rx="0.72" ry="0.72"/>
</g>
<!-- GM1&#45;&gt;GM2 -->
<g id="edge54" class="edge">
<title>GM1&#45;&gt;GM2</title>
<path fill="none" stroke="#999999" stroke-dasharray="5,2" d="M433.25,-542.17C433.25,-538.36 433.25,-509.54 433.25,-505.96"/>
</g>
<!-- GM3 -->
<g id="node61" class="node">
<title>GM3</title>
<ellipse fill="#999999" stroke="#999999" cx="433.25" cy="-457.68" rx="0.72" ry="0.72"/>
</g>
<!-- GM2&#45;&gt;GM3 -->
<g id="edge55" class="edge">
<title>GM2&#45;&gt;GM3</title>
<path fill="none" stroke="#999999" stroke-dasharray="5,2" d="M433.25,-504.02C433.25,-501.5 433.25,-463.61 433.25,-458.88"/>
</g>
<!-- GM4 -->
<g id="node62" class="node">
<title>GM4</title>
<ellipse fill="#999999" stroke="#999999" cx="433.25" cy="-410.49" rx="0.72" ry="0.72"/>
</g>
<!-- GM3&#45;&gt;GM4 -->
<g id="edge56" class="edge">
<title>GM3&#45;&gt;GM4</title>
<path fill="none" stroke="#999999" stroke-dasharray="5,2" d="M433.25,-456.83C433.25,-454.31 433.25,-416.42 433.25,-411.69"/>
</g>
<!-- GM5 -->
<g id="node63" class="node">
<title>GM5</title>
<ellipse fill="#999999" stroke="#999999" cx="433.25" cy="-372.05" rx="0.72" ry="0.72"/>
</g>
<!-- GM4&#45;&gt;GM5 -->
<g id="edge57" class="edge">
<title>GM4&#45;&gt;GM5</title>
<path fill="none" stroke="#999999" stroke-dasharray="5,2" d="M433.25,-409.35C433.25,-405.54 433.25,-376.72 433.25,-373.14"/>
</g>
<!-- GM6 -->
<g id="node64" class="node">
<title>GM6</title>
<ellipse fill="#999999" stroke="#999999" cx="433.25" cy="-323.36" rx="0.72" ry="0.72"/>
</g>
<!-- GM5&#45;&gt;GM6 -->
<g id="edge58" class="edge">
<title>GM5&#45;&gt;GM6</title>
<path fill="none" stroke="#999999" stroke-dasharray="5,2" d="M433.25,-371.19C433.25,-368.6 433.25,-329.46 433.25,-324.58"/>
</g>
<!-- GM7 -->
<g id="node65" class="node">
<title>GM7</title>
<ellipse fill="#999999" stroke="#999999" cx="433.25" cy="-276.17" rx="0.72" ry="0.72"/>
</g>
<!-- GM6&#45;&gt;GM7 -->
<g id="edge59" class="edge">
<title>GM6&#45;&gt;GM7</title>
<path fill="none" stroke="#999999" stroke-dasharray="5,2" d="M433.25,-322.51C433.25,-319.99 433.25,-282.1 433.25,-277.37"/>
</g>
<!-- GM8 -->
<g id="node66" class="node">
<title>GM8</title>
<ellipse fill="#999999" stroke="#999999" cx="433.25" cy="-237.73" rx="0.72" ry="0.72"/>
</g>
<!-- GM7&#45;&gt;GM8 -->
<g id="edge60" class="edge">
<title>GM7&#45;&gt;GM8</title>
<path fill="none" stroke="#999999" stroke-dasharray="5,2" d="M433.25,-275.03C433.25,-271.22 433.25,-242.4 433.25,-238.82"/>
</g>
<!-- GM9 -->
<g id="node67" class="node">
<title>GM9</title>
<ellipse fill="#999999" stroke="#999999" cx="433.25" cy="-171.76" rx="0.72" ry="0.72"/>
</g>
<!-- GM8&#45;&gt;GM9 -->
<g id="edge61" class="edge">
<title>GM8&#45;&gt;GM9</title>
<path fill="none" stroke="#999999" stroke-dasharray="5,2" d="M433.25,-236.6C433.25,-231.3 433.25,-176.36 433.25,-172.93"/>
</g>
<!-- GM10 -->
<g id="node68" class="node">
<title>GM10</title>
<ellipse fill="#999999" stroke="#999999" cx="433.25" cy="-116.04" rx="0.72" ry="0.72"/>
</g>
<!-- GM9&#45;&gt;GM10 -->
<g id="edge62" class="edge">
<title>GM9&#45;&gt;GM10</title>
<path fill="none" stroke="#999999" stroke-dasharray="5,2" d="M433.25,-170.61C433.25,-167.54 433.25,-119.88 433.25,-116.91"/>
</g>
<!-- GM10&#45;&gt;JF10 -->
<g id="edge89" class="edge">
<title>GM10&#45;&gt;JF10</title>
<path fill="none" stroke="#38761d" d="M434.12,-116.04C446,-116.04 575.47,-116.04 616.71,-116.04"/>
<polygon fill="#38761d" stroke="#38761d" points="616.58,-119.54 626.58,-116.04 616.58,-112.54 616.58,-119.54"/>
<text xml:space="preserve" text-anchor="middle" x="531.25" y="-121.74" font-family="Helvetica,sans-Serif" font-size="9.00">10: Load + parse (관대한 폴백 + spdlog warn)</text>
</g>
<!-- GM10&#45;&gt;GM11 -->
<g id="edge63" class="edge">
<title>GM10&#45;&gt;GM11</title>
<path fill="none" stroke="#999999" stroke-dasharray="5,2" d="M433.25,-114.9C433.25,-111.09 433.25,-82.27 433.25,-78.69"/>
</g>
<!-- GM12 -->
<g id="node70" class="node">
<title>GM12</title>
<ellipse fill="#999999" stroke="#999999" cx="433.25" cy="-39.16" rx="0.72" ry="0.72"/>
</g>
<!-- GM11&#45;&gt;GM12 -->
<g id="edge64" class="edge">
<title>GM11&#45;&gt;GM12</title>
<path fill="none" stroke="#999999" stroke-dasharray="5,2" d="M433.25,-76.46C433.25,-72.65 433.25,-43.83 433.25,-40.25"/>
</g>
<!-- GM13 -->
<g id="node71" class="node">
<title>GM13</title>
<ellipse fill="#999999" stroke="#999999" cx="433.25" cy="-0.72" rx="0.72" ry="0.72"/>
</g>
<!-- GM12&#45;&gt;GM13 -->
<g id="edge65" class="edge">
<title>GM12&#45;&gt;GM13</title>
<path fill="none" stroke="#999999" stroke-dasharray="5,2" d="M433.25,-38.02C433.25,-34.21 433.25,-5.39 433.25,-1.81"/>
</g>
<!-- SC13 -->
<g id="node84" class="node">
<title>SC13</title>
<ellipse fill="#999999" stroke="#999999" cx="213.25" cy="-0.72" rx="0.72" ry="0.72"/>
</g>
<!-- GM13&#45;&gt;SC13 -->
<g id="edge92" class="edge">
<title>GM13&#45;&gt;SC13</title>
<path fill="none" stroke="#7f7f7f" stroke-dasharray="5,2" d="M432.34,-0.72C419.3,-0.72 269.23,-0.72 225.28,-0.72"/>
<polygon fill="#7f7f7f" stroke="#7f7f7f" points="215.45,-0.72 225.45,3.78 219.23,-0.72 225.45,-0.72 225.45,-0.72 225.45,-0.72 219.23,-0.72 225.45,-5.22 215.45,-0.72"/>
<text xml:space="preserve" text-anchor="middle" x="323.25" y="-6.42" font-family="Helvetica,sans-Serif" font-size="9.00">13: StageData&amp; &#45;&gt; 웨이브 곡선/아레나 반영</text>
</g>
<!-- SC2 -->
<g id="node73" class="node">
<title>SC2</title>
<ellipse fill="#999999" stroke="#999999" cx="213.25" cy="-504.87" rx="0.72" ry="0.72"/>
</g>
<!-- SC1&#45;&gt;SC2 -->
<g id="edge67" class="edge">
<title>SC1&#45;&gt;SC2</title>
<path fill="none" stroke="#999999" stroke-dasharray="5,2" d="M213.25,-542.17C213.25,-538.36 213.25,-509.54 213.25,-505.96"/>
</g>
<!-- SC3 -->
<g id="node74" class="node">
<title>SC3</title>
<ellipse fill="#999999" stroke="#999999" cx="213.25" cy="-457.68" rx="0.72" ry="0.72"/>
</g>
<!-- SC2&#45;&gt;SC3 -->
<g id="edge68" class="edge">
<title>SC2&#45;&gt;SC3</title>
<path fill="none" stroke="#999999" stroke-dasharray="5,2" d="M213.25,-504.02C213.25,-501.5 213.25,-463.61 213.25,-458.88"/>
</g>
<!-- SC4 -->
<g id="node75" class="node">
<title>SC4</title>
<ellipse fill="#999999" stroke="#999999" cx="213.25" cy="-410.49" rx="0.72" ry="0.72"/>
</g>
<!-- SC3&#45;&gt;SC4 -->
<g id="edge69" class="edge">
<title>SC3&#45;&gt;SC4</title>
<path fill="none" stroke="#999999" stroke-dasharray="5,2" d="M213.25,-456.83C213.25,-454.31 213.25,-416.42 213.25,-411.69"/>
</g>
<!-- SC5 -->
<g id="node76" class="node">
<title>SC5</title>
<ellipse fill="#999999" stroke="#999999" cx="213.25" cy="-372.05" rx="0.72" ry="0.72"/>
</g>
<!-- SC4&#45;&gt;SC5 -->
<g id="edge70" class="edge">
<title>SC4&#45;&gt;SC5</title>
<path fill="none" stroke="#999999" stroke-dasharray="5,2" d="M213.25,-409.35C213.25,-405.54 213.25,-376.72 213.25,-373.14"/>
</g>
<!-- SC6 -->
<g id="node77" class="node">
<title>SC6</title>
<ellipse fill="#999999" stroke="#999999" cx="213.25" cy="-323.36" rx="0.72" ry="0.72"/>
</g>
<!-- SC5&#45;&gt;SC6 -->
<g id="edge71" class="edge">
<title>SC5&#45;&gt;SC6</title>
<path fill="none" stroke="#999999" stroke-dasharray="5,2" d="M213.25,-371.19C213.25,-368.6 213.25,-329.46 213.25,-324.58"/>
</g>
<!-- SC7 -->
<g id="node78" class="node">
<title>SC7</title>
<ellipse fill="#999999" stroke="#999999" cx="213.25" cy="-276.17" rx="0.72" ry="0.72"/>
</g>
<!-- SC6&#45;&gt;SC7 -->
<g id="edge72" class="edge">
<title>SC6&#45;&gt;SC7</title>
<path fill="none" stroke="#999999" stroke-dasharray="5,2" d="M213.25,-322.51C213.25,-319.99 213.25,-282.1 213.25,-277.37"/>
</g>
<!-- SC8 -->
<g id="node79" class="node">
<title>SC8</title>
<ellipse fill="#999999" stroke="#999999" cx="213.25" cy="-237.73" rx="0.72" ry="0.72"/>
</g>
<!-- SC7&#45;&gt;SC8 -->
<g id="edge73" class="edge">
<title>SC7&#45;&gt;SC8</title>
<path fill="none" stroke="#999999" stroke-dasharray="5,2" d="M213.25,-275.03C213.25,-271.22 213.25,-242.4 213.25,-238.82"/>
</g>
<!-- SC9 -->
<g id="node80" class="node">
<title>SC9</title>
<ellipse fill="#999999" stroke="#999999" cx="213.25" cy="-171.76" rx="0.72" ry="0.72"/>
</g>
<!-- SC8&#45;&gt;SC9 -->
<g id="edge74" class="edge">
<title>SC8&#45;&gt;SC9</title>
<path fill="none" stroke="#999999" stroke-dasharray="5,2" d="M213.25,-236.6C213.25,-231.3 213.25,-176.36 213.25,-172.93"/>
</g>
<!-- SC10 -->
<g id="node81" class="node">
<title>SC10</title>
<ellipse fill="#999999" stroke="#999999" cx="213.25" cy="-116.04" rx="0.72" ry="0.72"/>
</g>
<!-- SC9&#45;&gt;SC10 -->
<g id="edge75" class="edge">
<title>SC9&#45;&gt;SC10</title>
<path fill="none" stroke="#999999" stroke-dasharray="5,2" d="M213.25,-170.61C213.25,-167.54 213.25,-119.88 213.25,-116.91"/>
</g>
<!-- SC11 -->
<g id="node82" class="node">
<title>SC11</title>
<ellipse fill="#999999" stroke="#999999" cx="213.25" cy="-77.6" rx="0.72" ry="0.72"/>
</g>
<!-- SC10&#45;&gt;SC11 -->
<g id="edge76" class="edge">
<title>SC10&#45;&gt;SC11</title>
<path fill="none" stroke="#999999" stroke-dasharray="5,2" d="M213.25,-114.9C213.25,-111.09 213.25,-82.27 213.25,-78.69"/>
</g>
<!-- SC12 -->
<g id="node83" class="node">
<title>SC12</title>
<ellipse fill="#999999" stroke="#999999" cx="213.25" cy="-39.16" rx="0.72" ry="0.72"/>
</g>
<!-- SC11&#45;&gt;SC12 -->
<g id="edge77" class="edge">
<title>SC11&#45;&gt;SC12</title>
<path fill="none" stroke="#999999" stroke-dasharray="5,2" d="M213.25,-76.46C213.25,-72.65 213.25,-43.83 213.25,-40.25"/>
</g>
<!-- SC12&#45;&gt;GM12 -->
<g id="edge91" class="edge">
<title>SC12&#45;&gt;GM12</title>
<path fill="none" stroke="#38761d" d="M214.23,-39.16C227.72,-39.16 376.59,-39.16 420.89,-39.16"/>
<polygon fill="#38761d" stroke="#38761d" points="420.83,-42.66 430.83,-39.16 420.83,-35.66 420.83,-42.66"/>
<text xml:space="preserve" text-anchor="middle" x="323.25" y="-43.36" font-family="Helvetica,sans-Serif" font-size="9.00">12: GetDataTable&lt;StageData&gt;(&quot;stage&quot;)</text>
</g>
<!-- SC12&#45;&gt;SC13 -->
<g id="edge78" class="edge">
<title>SC12&#45;&gt;SC13</title>
<path fill="none" stroke="#999999" stroke-dasharray="5,2" d="M213.25,-38.02C213.25,-34.21 213.25,-5.39 213.25,-1.81"/>
</g>
</g>
</svg>
