<?xml version="1.0" encoding="UTF-8" standalone="no"?>
<!DOCTYPE svg PUBLIC "-//W3C//DTD SVG 1.1//EN"
 "http://www.w3.org/Graphics/SVG/1.1/DTD/svg11.dtd">
<!-- Generated by graphviz version 14.1.3 (20260303.0454)
 -->
<!-- Title: PlayableClass Pages: 1 -->
<svg width="700pt" height="216pt"
 viewBox="0.00 0.00 700.00 216.00" xmlns="http://www.w3.org/2000/svg" xmlns:xlink="http://www.w3.org/1999/xlink">
<g id="graph0" class="graph" transform="scale(1 1) rotate(0) translate(4 212.25)">
<title>PlayableClass</title>
<polygon fill="white" stroke="none" points="-4,4 -4,-212.25 695.75,-212.25 695.75,4 -4,4"/>
<text xml:space="preserve" text-anchor="middle" x="345.88" y="-189.05" font-family="Helvetica,sans-Serif" font-size="16.00">SJH::Playable 코어 — 3계층 (인터페이스 / 상태+틱 / 합성)</text>
<!-- IPlayable -->
<g id="node1" class="node">
<title>IPlayable</title>
<path fill="#ffe6cc" stroke="black" d="M280.38,-36C280.38,-36 94.12,-36 94.12,-36 88.12,-36 82.12,-30 82.12,-24 82.12,-24 82.12,-12 82.12,-12 82.12,-6 88.12,0 94.12,0 94.12,0 280.38,0 280.38,0 286.38,0 292.38,-6 292.38,-12 292.38,-12 292.38,-24 292.38,-24 292.38,-30 286.38,-36 280.38,-36"/>
<text xml:space="preserve" text-anchor="middle" x="187.25" y="-19.55" font-family="Helvetica,sans-Serif" font-size="11.00">IPlayable «interface»</text>
<text xml:space="preserve" text-anchor="middle" x="187.25" y="-7.55" font-family="Helvetica,sans-Serif" font-size="11.00">Play/Pause/Stop/GetIsLoop + IsFinished</text>
</g>
<!-- Component -->
<g id="node2" class="node">
<title>Component</title>
<path fill="#e0e0e0" stroke="black" d="M436,-36C436,-36 322.5,-36 322.5,-36 316.5,-36 310.5,-30 310.5,-24 310.5,-24 310.5,-12 310.5,-12 310.5,-6 316.5,0 322.5,0 322.5,0 436,0 436,0 442,0 448,-6 448,-12 448,-12 448,-24 448,-24 448,-30 442,-36 436,-36"/>
<text xml:space="preserve" text-anchor="middle" x="379.25" y="-19.55" font-family="Helvetica,sans-Serif" font-size="11.00">SJH::Scene::Component</text>
<text xml:space="preserve" text-anchor="middle" x="379.25" y="-7.55" font-family="Helvetica,sans-Serif" font-size="11.00">(OnEnter/OnExit/Update)</text>
</g>
<!-- PlayableBase -->
<g id="node3" class="node">
<title>PlayableBase</title>
<path fill="#d6e8ff" stroke="black" d="M412.38,-108C412.38,-108 154.12,-108 154.12,-108 148.12,-108 142.12,-102 142.12,-96 142.12,-96 142.12,-84 142.12,-84 142.12,-78 148.12,-72 154.12,-72 154.12,-72 412.38,-72 412.38,-72 418.38,-72 424.38,-78 424.38,-84 424.38,-84 424.38,-96 424.38,-96 424.38,-102 418.38,-108 412.38,-108"/>
<text xml:space="preserve" text-anchor="middle" x="283.25" y="-92.74" font-family="Helvetica,sans-Serif" font-size="11.00">PlayableBase «abstract»</text>
<text xml:space="preserve" text-anchor="middle" x="283.25" y="-80.74" font-family="Helvetica,sans-Serif" font-size="11.00">상태(mElapsed/mIsLoop/...) + Update→OnUpdate hook</text>
</g>
<!-- PlayableBase&#45;&gt;IPlayable -->
<g id="edge1" class="edge">
<title>PlayableBase&#45;&gt;IPlayable</title>
<path fill="none" stroke="black" d="M259.52,-71.7C247.63,-63.03 233.06,-52.4 220.11,-42.96"/>
<polygon fill="none" stroke="black" points="222.41,-40.3 212.26,-37.24 218.28,-45.96 222.41,-40.3"/>
</g>
<!-- PlayableBase&#45;&gt;Component -->
<g id="edge2" class="edge">
<title>PlayableBase&#45;&gt;Component</title>
<path fill="none" stroke="black" d="M306.98,-71.7C318.87,-63.03 333.44,-52.4 346.39,-42.96"/>
<polygon fill="none" stroke="black" points="348.22,-45.96 354.24,-37.24 344.09,-40.3 348.22,-45.96"/>
</g>
<!-- Interval -->
<g id="node4" class="node">
<title>Interval</title>
<path fill="#e8f5e8" stroke="black" d="M80.5,-180C80.5,-180 12,-180 12,-180 6,-180 0,-174 0,-168 0,-168 0,-156 0,-156 0,-150 6,-144 12,-144 12,-144 80.5,-144 80.5,-144 86.5,-144 92.5,-150 92.5,-156 92.5,-156 92.5,-168 92.5,-168 92.5,-174 86.5,-180 80.5,-180"/>
<text xml:space="preserve" text-anchor="middle" x="46.25" y="-164.68" font-family="Helvetica,sans-Serif" font-size="11.00">IntervalPlayable</text>
<text xml:space="preserve" text-anchor="middle" x="46.25" y="-152.68" font-family="Helvetica,sans-Serif" font-size="11.00">(대기 leaf)</text>
</g>
<!-- Interval&#45;&gt;PlayableBase -->
<g id="edge3" class="edge">
<title>Interval&#45;&gt;PlayableBase</title>
<path fill="none" stroke="black" d="M92.74,-146.57C95.62,-145.7 98.47,-144.83 101.25,-144 137.66,-133.07 178.26,-121.22 211.86,-111.5"/>
<polygon fill="none" stroke="black" points="212.42,-114.98 221.06,-108.84 210.48,-108.25 212.42,-114.98"/>
</g>
<!-- Sequence -->
<g id="node5" class="node">
<title>Sequence</title>
<path fill="#e8f5e8" stroke="black" d="M204.25,-180C204.25,-180 122.25,-180 122.25,-180 116.25,-180 110.25,-174 110.25,-168 110.25,-168 110.25,-156 110.25,-156 110.25,-150 116.25,-144 122.25,-144 122.25,-144 204.25,-144 204.25,-144 210.25,-144 216.25,-150 216.25,-156 216.25,-156 216.25,-168 216.25,-168 216.25,-174 210.25,-180 204.25,-180"/>
<text xml:space="preserve" text-anchor="middle" x="163.25" y="-164.68" font-family="Helvetica,sans-Serif" font-size="11.00">SequencePlayable</text>
<text xml:space="preserve" text-anchor="middle" x="163.25" y="-152.68" font-family="Helvetica,sans-Serif" font-size="11.00">(순차 Composite)</text>
</g>
<!-- Sequence&#45;&gt;PlayableBase -->
<g id="edge4" class="edge">
<title>Sequence&#45;&gt;PlayableBase</title>
<path fill="none" stroke="black" d="M193.22,-143.52C208.51,-134.6 227.31,-123.63 243.77,-114.03"/>
<polygon fill="none" stroke="black" points="245.48,-117.09 252.35,-109.02 241.95,-111.04 245.48,-117.09"/>
</g>
<!-- Parallel -->
<g id="node6" class="node">
<title>Parallel</title>
<path fill="#e8f5e8" stroke="black" d="M320.12,-180C320.12,-180 246.38,-180 246.38,-180 240.38,-180 234.38,-174 234.38,-168 234.38,-168 234.38,-156 234.38,-156 234.38,-150 240.38,-144 246.38,-144 246.38,-144 320.12,-144 320.12,-144 326.12,-144 332.12,-150 332.12,-156 332.12,-156 332.12,-168 332.12,-168 332.12,-174 326.12,-180 320.12,-180"/>
<text xml:space="preserve" text-anchor="middle" x="283.25" y="-164.68" font-family="Helvetica,sans-Serif" font-size="11.00">ParallelPlayable</text>
<text xml:space="preserve" text-anchor="middle" x="283.25" y="-152.68" font-family="Helvetica,sans-Serif" font-size="11.00">(동시 Composite)</text>
</g>
<!-- Parallel&#45;&gt;PlayableBase -->
<g id="edge5" class="edge">
<title>Parallel&#45;&gt;PlayableBase</title>
<path fill="none" stroke="black" d="M283.25,-143.7C283.25,-136.41 283.25,-127.73 283.25,-119.54"/>
<polygon fill="none" stroke="black" points="286.75,-119.62 283.25,-109.62 279.75,-119.62 286.75,-119.62"/>
</g>
<!-- PostFXTween -->
<g id="node7" class="node">
<title>PostFXTween</title>
<path fill="#fff2e0" stroke="black" d="M498.62,-180C498.62,-180 361.88,-180 361.88,-180 355.88,-180 349.88,-174 349.88,-168 349.88,-168 349.88,-156 349.88,-156 349.88,-150 355.88,-144 361.88,-144 361.88,-144 498.62,-144 498.62,-144 504.62,-144 510.62,-150 510.62,-156 510.62,-156 510.62,-168 510.62,-168 510.62,-174 504.62,-180 498.62,-180"/>
<text xml:space="preserve" text-anchor="middle" x="430.25" y="-157.55" font-family="Helvetica,sans-Serif" font-size="11.00">PostFXTweenPlayable (client)</text>
</g>
<!-- PostFXTween&#45;&gt;PlayableBase -->
<g id="edge6" class="edge">
<title>PostFXTween&#45;&gt;PlayableBase</title>
<path fill="none" stroke="black" d="M393.53,-143.52C374.34,-134.38 350.65,-123.09 330.14,-113.33"/>
<polygon fill="none" stroke="black" points="331.65,-110.17 321.12,-109.03 328.64,-116.49 331.65,-110.17"/>
</g>
<!-- SpriteFx -->
<g id="node8" class="node">
<title>SpriteFx</title>
<path fill="#fff2e0" stroke="black" d="M679.75,-180C679.75,-180 540.75,-180 540.75,-180 534.75,-180 528.75,-174 528.75,-168 528.75,-168 528.75,-156 528.75,-156 528.75,-150 534.75,-144 540.75,-144 540.75,-144 679.75,-144 679.75,-144 685.75,-144 691.75,-150 691.75,-156 691.75,-156 691.75,-168 691.75,-168 691.75,-174 685.75,-180 679.75,-180"/>
<text xml:space="preserve" text-anchor="middle" x="610.25" y="-157.55" font-family="Helvetica,sans-Serif" font-size="11.00">SpriteHitFlash/Dissolve (client)</text>
</g>
<!-- SpriteFx&#45;&gt;PlayableBase -->
<g id="edge7" class="edge">
<title>SpriteFx&#45;&gt;PlayableBase</title>
<path fill="none" stroke="black" d="M528.58,-143.52C482.16,-133.58 423.88,-121.1 375.78,-110.81"/>
<polygon fill="none" stroke="black" points="376.72,-107.43 366.21,-108.76 375.26,-114.27 376.72,-107.43"/>
</g>
</g>
</svg>
